<svg width="87" height="33" viewBox="0 0 87 33" fill="none" xmlns="http://www.w3.org/2000/svg">
    <path
        d="M32.5874 7.71625H33.9405C34.26 7.71625 34.5188 7.97534 34.5188 8.29466V22.7391C34.5188 22.9392 34.6815 23.1018 34.882 23.1018H43.4529C43.7724 23.1018 44.0315 23.3607 44.0315 23.6801V24.7073C44.0315 25.0267 43.7725 25.2857 43.4529 25.2857H32.5874C32.2678 25.2857 32.0088 25.0267 32.0088 24.7073V8.29466C32.0088 7.97534 32.2679 7.71625 32.5874 7.71625Z"
        fill="white" />
    <path
        d="M57.9466 20.8931H49.091C48.9447 20.8931 48.8126 20.9795 48.7538 21.1134L47.0699 24.9402C46.9775 25.1501 46.77 25.2855 46.5406 25.2855H45.2293C44.8092 25.2855 44.5292 24.8515 44.7025 24.4688L52.1353 8.05586C52.2289 7.84902 52.4349 7.71631 52.6621 7.71631H54.4017C54.6285 7.71631 54.834 7.84876 54.9281 8.05508L62.3838 24.4679C62.5577 24.8509 62.2779 25.2854 61.8575 25.2854H60.4971C60.268 25.2854 60.0602 25.15 59.9681 24.9401L58.2843 21.1133C58.2255 20.9796 58.0931 20.8931 57.9466 20.8931ZM57.1323 18.4846L53.7806 10.87C53.6803 10.6427 53.3577 10.6427 53.2574 10.87L49.9053 18.4846C49.8224 18.6734 49.9605 18.8852 50.1669 18.8852H56.8711C57.0774 18.8853 57.2155 18.6734 57.1323 18.4846Z"
        fill="white" />
    <path
        d="M65.343 7.71625H66.6964C67.0156 7.71625 67.2746 7.97534 67.2746 8.29466V24.7073C67.2746 25.0267 67.0156 25.2857 66.6964 25.2857H65.343C65.0234 25.2857 64.7646 25.0267 64.7646 24.7073V8.29466C64.7646 7.97534 65.0234 7.71625 65.343 7.71625Z"
        fill="white" />
    <path
        d="M73.2389 24.8714C72.2056 24.5266 71.3577 24.0964 70.6962 23.5803C70.4829 23.4138 70.4145 23.1207 70.531 22.8758L70.9542 21.9832C71.1068 21.6612 71.5159 21.5432 71.806 21.7507C72.3784 22.1597 73.0569 22.5059 73.8416 22.7882C74.8869 23.1645 75.9623 23.353 77.0668 23.353C78.5221 23.353 79.6097 23.1064 80.3297 22.6126C81.0486 22.1191 81.4088 21.4622 81.4088 20.6423C81.4088 20.0398 81.2122 19.5507 80.819 19.174C80.4258 18.7977 79.9405 18.5091 79.3632 18.3082C78.786 18.1074 77.9702 17.8814 76.9159 17.6305C75.5941 17.3128 74.5272 16.9948 73.7159 16.6764C72.9041 16.359 72.2099 15.8695 71.6327 15.2082C71.0553 14.5476 70.7669 13.6567 70.7669 12.5353C70.7669 11.5985 71.0133 10.7535 71.5073 10.0005C72.0008 9.24746 72.7496 8.64526 73.7538 8.19331C74.7574 7.74162 76.0042 7.51569 77.4931 7.51569C78.5307 7.51569 79.5517 7.6497 80.5556 7.91712C81.3683 8.13385 82.0874 8.4274 82.7135 8.79759C82.9625 8.94463 83.0666 9.25154 82.956 9.5187L82.5651 10.4665C82.434 10.7843 82.0577 10.9161 81.7555 10.7524C81.1831 10.4422 80.5821 10.1959 79.9529 10.0131C79.1162 9.77041 78.2968 9.64916 77.4931 9.64916C76.0708 9.64916 75.0041 9.90885 74.2932 10.4271C73.5819 10.9459 73.2264 11.6154 73.2264 12.435C73.2264 13.0372 73.4272 13.5268 73.8291 13.9033C74.2304 14.2798 74.728 14.5728 75.3226 14.7816C75.9159 14.9912 76.7236 15.2125 77.7443 15.4468C79.0658 15.7649 80.1288 16.0832 80.932 16.4007C81.7351 16.7188 82.4254 17.2039 83.0026 17.8565C83.58 18.5092 83.8684 19.3873 83.8684 20.4918C83.8684 21.4121 83.6175 22.2531 83.1154 23.0142C82.6136 23.7758 81.8519 24.3784 80.8317 24.8214C79.8106 25.2649 78.5555 25.4862 77.0669 25.4862C75.7444 25.4862 74.4688 25.2818 73.2389 24.8714Z"
        fill="white" />
    <path
        d="M27.3421 15.5408C26.8125 15.5408 26.3818 15.9715 26.3818 16.5009C26.3818 22.4372 21.552 27.2672 15.6155 27.2672C11.105 27.2672 7.03773 24.4209 5.49526 20.1841C5.31463 19.6868 4.76217 19.4296 4.26474 19.6105C4.02396 19.6984 3.83153 19.8745 3.72312 20.1069C3.6148 20.3395 3.6036 20.6003 3.69127 20.841C5.50862 25.8333 10.3007 29.1875 15.6155 29.1875C22.6109 29.1875 28.3021 23.4966 28.3021 16.501C28.302 15.9715 27.8713 15.5408 27.3421 15.5408Z"
        fill="white" />
    <path
        d="M27.3415 15.5408H21.333L19.1644 10.6938C19.0092 10.3469 18.6645 10.1261 18.2809 10.1261C18.2717 10.1261 18.2626 10.1264 18.2534 10.1264C17.8608 10.1408 17.5203 10.3885 17.3859 10.7575L14.9003 17.5827L13.0056 12.8503C12.8625 12.4924 12.5211 12.2559 12.1355 12.2472L12.1139 12.247C11.7384 12.247 11.3951 12.4684 11.2397 12.811L10.0036 15.5408H3.88877C3.3594 15.5408 2.92871 15.9714 2.92871 16.5008C2.92871 17.0302 3.3594 17.4609 3.88877 17.4609H10.6228C10.9992 17.4609 11.3422 17.2396 11.4973 16.8967L12.0599 15.6546L14.0515 20.6287C14.198 20.9952 14.5481 21.232 14.9423 21.232H14.9577C15.3532 21.2258 15.7094 20.9719 15.8446 20.6003L18.3793 13.6408L19.835 16.8931C19.9889 17.2381 20.3328 17.4609 20.7109 17.4609H27.3417C27.8707 17.4609 28.3014 17.0302 28.3014 16.5008C28.3014 15.9714 27.8705 15.5408 27.3415 15.5408Z"
        fill="white" />
    <path
        d="M27.5395 12.1608C25.7223 7.16848 20.9303 3.81464 15.6152 3.81464C8.61991 3.81464 2.92871 9.50566 2.92871 16.5008C2.92871 17.0302 3.35966 17.4609 3.88895 17.4609C4.41824 17.4609 4.84892 17.0302 4.84892 16.5008C4.84892 10.5643 9.67875 5.73441 15.6152 5.73441C20.1261 5.73441 24.193 8.58092 25.7353 12.8174C25.8232 13.0582 25.9994 13.2509 26.2318 13.3594C26.4648 13.468 26.7253 13.4792 26.9658 13.3911C27.2065 13.3035 27.3996 13.1271 27.5079 12.8948C27.6159 12.6626 27.6274 12.4016 27.5395 12.1608Z"
        fill="white" />
</svg>